HIERARCHY
ROOT Hips
{
  OFFSET 263.056 91.6644 -274.608
  CHANNELS 6 Xposition Yposition Zposition Zrotation Xrotation Yrotation
  JOINT LeftUpLeg
  {
    OFFSET 8.64259 1.95398 -2.38835
    CHANNELS 3 Zrotation Xrotation Yrotation
    JOINT LeftLeg
    {
      OFFSET 43.7702 0 0
      CHANNELS 3 Zrotation Xrotation Yrotation
      JOINT LeftFoot
      {
        OFFSET 40.6238 0 0
        CHANNELS 3 Zrotation Xrotation Yrotation
        JOINT LeftToeBase
        {
          OFFSET 12.7242 0 0
          CHANNELS 3 Zrotation Xrotation Yrotation
          End Site
          {
            OFFSET 0 0 0
          }
        }
      }
    }
  }
  JOINT RightUpLeg
  {
    OFFSET -8.2249 1.95398 -2.59336
    CHANNELS 3 Zrotation Xrotation Yrotation
    JOINT RightLeg
    {
      OFFSET 43.5653 0 0
      CHANNELS 3 Zrotation Xrotation Yrotation
      JOINT RightFoot
      {
        OFFSET 40.6238 0 0
        CHANNELS 3 Zrotation Xrotation Yrotation
        JOINT RightToeBase
        {
          OFFSET 12.7242 0 0
          CHANNELS 3 Zrotation Xrotation Yrotation
          End Site
          {
            OFFSET 0 0 0
          }
        }
      }
    }
  }
  JOINT Spine
  {
    OFFSET 0.165834 0.87714 6.61349
    CHANNELS 3 Zrotation Xrotation Yrotation
    JOINT Spine1
    {
      OFFSET 7.38963 1.71661e-005 0
      CHANNELS 3 Zrotation Xrotation Yrotation
      JOINT Spine2
      {
        OFFSET 11.9445 1.14441e-005 0
        CHANNELS 3 Zrotation Xrotation Yrotation
        JOINT Spine3
        {
          OFFSET 14.7254 4.19617e-005 0
          CHANNELS 3 Zrotation Xrotation Yrotation
          JOINT Spine4
          {
            OFFSET 10.9679 0 0
            CHANNELS 3 Zrotation Xrotation Yrotation
            JOINT RightShoulder
            {
              OFFSET 2.46616 -1.6653 3.69651
              CHANNELS 3 Zrotation Xrotation Yrotation
              JOINT RightArm
              {
                OFFSET 13.0012 0 0
                CHANNELS 3 Zrotation Xrotation Yrotation
                JOINT RightForeArm
                {
                  OFFSET 28.7848 1.52588e-005 0
                  CHANNELS 3 Zrotation Xrotation Yrotation
                  JOINT RightHand
                  {
                    OFFSET 26.5688 1.52588e-005 0
                    CHANNELS 3 Zrotation Xrotation Yrotation
                    End Site
                    {
                      OFFSET 0 0 0
                    }
                  }
                }
              }
            }
            JOINT LeftShoulder
            {
              OFFSET 2.38034 -1.29275 -3.7523
              CHANNELS 3 Zrotation Xrotation Yrotation
              JOINT LeftArm
              {
                OFFSET 16.3182 6.10352e-005 0
                CHANNELS 3 Zrotation Xrotation Yrotation
                JOINT LeftForeArm
                {
                  OFFSET 27.0901 0 0
                  CHANNELS 3 Zrotation Xrotation Yrotation
                  JOINT LeftHand
                  {
                    OFFSET 24.5451 1.52588e-005 0
                    CHANNELS 3 Zrotation Xrotation Yrotation
                    End Site
                    {
                      OFFSET 0 0 0
                    }
                  }
                }
              }
            }
            JOINT Neck
            {
              OFFSET 5.0226 -0.0266342 0
              CHANNELS 3 Zrotation Xrotation Yrotation
              JOINT Head
              {
                OFFSET 6.69364 2.86102e-005 0
                CHANNELS 3 Zrotation Xrotation Yrotation
                End Site
                {
                  OFFSET 0 0 0
                }
              }
            }
          }
        }
      }
    }
  }
}
MOTION
Frames:	10
Frame Time:	0.0416667
-0.7542 92.9093 -55.1816 90.5955 -19.2021 86.08 -173.54 -8.97772 90.3666 -23.1518 28.1953 1.45902 62.4174 8.30213 12.4534 53.2438 26.4049 -1.1185 -179.091 29.6508 83.5526 -14.9061 7.53121 -2.51694 67.3148 -1.82268 -0.970099 55.3788 1.36201 -1.79359 -1.45367 7.92321 -89.5859 11.041 -2.70176 1.083 -0.627651 -2.65149 1.20091 -23.1849 -2.90224 0.220316 -3.17228 -2.90225 0.220316 78.5651 -56.6469 -115.376 30.0873 -12.303 33.7313 -6.84086 -19.6297 -36.365 -4.22385 -0.444905 2.77332 -100.777 -38.8737 58.1722 -11.6243 5.00802 -8.98528 8.50407 6.69988 -47.6173 13.8892 0.970409 3.04567 -8.09333 -16.4088 -5.03545 11.8708 -16.2881 -2.65487 
6.82076 91.6613 -50.4256 90.4819 -18.8803 87.9091 -173.492 -10.3804 93.9301 -28.4235 30.164 3.098 56.9379 1.02986 7.14793 56.5424 33.0272 6.55214 179.541 30.8996 86.0305 -23.5303 10.7584 -0.586187 64.4642 -1.8011 -0.990477 48.5077 1.43328 1.98352 -1.62022 7.79233 -89.9276 11.2995 -3.19052 0.461629 -0.367711 -3.1671 0.601731 -22.9339 -3.18158 -0.519595 -2.92128 -3.18161 -0.519606 78.3475 -57.334 -115.418 28.1403 -11.9883 33.4546 -7.10416 -21.6402 -34.2393 -4.45672 -0.487606 3.50535 -100.885 -38.9983 58.0583 -13.2978 4.59467 -7.32268 9.59469 7.9849 -46.9734 13.8103 0.926103 2.77191 -7.93195 -16.1876 -4.49138 11.2185 -15.9347 -1.38895 
14.3658 90.9733 -45.9259 91.1457 -20.536 91.1951 -173.49 -9.64149 97.3392 -35.1723 25.3741 3.77728 44.1971 -10.1883 -1.89311 50.067 30.523 20.5576 178.58 31.524 89.7924 -34.6259 9.30562 0.661477 61.9795 -0.923517 -0.452586 45.019 1.24334 3.91506 -1.57872 7.8204 -90.3976 11.2279 -3.32686 -0.463236 -0.438883 -3.34402 -0.316211 -23.0028 -3.03369 -1.44253 -2.99012 -3.0337 -1.44255 78.3317 -56.5426 -115.735 25.9795 -10.8282 30.9974 -6.91154 -20.9779 -33.4723 -4.44266 -0.497284 4.20771 -101.952 -40.0943 56.8838 -15.9853 4.52438 -2.68584 8.64539 6.87576 -46.2806 15.6889 1.01192 2.56264 -6.66073 -14.6816 -2.25165 9.96217 -14.5341 -1.29405 
20.9413 90.5258 -41.5405 93.2893 -23.8585 92.4287 -173.954 -3.94592 97.507 -49.9088 18.8072 3.01085 38.4105 -14.5865 -3.27839 32.7307 3.94566 13.9832 177.501 29.2022 92.0597 -43.3277 9.32437 1.17082 67.5443 -2.30198 -1.22851 36.961 0.62984 10.7783 -1.2595 7.97255 -90.3976 10.9239 -2.69138 -0.536487 -0.744311 -2.71241 -0.417436 -23.2974 -2.40567 -1.32097 -3.28474 -2.40568 -1.32098 79.2804 -54.9572 -115.014 26.1375 -8.62978 27.2159 -7.09324 -17.4221 -35.2919 -5.27147 -0.516957 3.83104 -102.206 -40.4955 56.6771 -19.4719 6.56103 0.602022 7.16551 6.91531 -43.3566 17.3329 1.11067 2.54083 -6.58794 -12.5747 -1.83383 9.51245 -12.4297 -0.873729 
27.5501 91.4422 -37.2189 93.915 -26.8026 92.3664 -173.542 4.87053 95.8828 -60.2862 16.0283 1.40681 42.5423 -11.3591 2.81785 40.2661 13.9966 10.0251 178.736 23.8424 93.6597 -44.0456 8.92958 -0.760132 71.998 -3.7312 -1.89728 35.3631 0.357819 9.95929 -0.837643 7.97952 -90.2881 10.913 -1.80093 -0.403218 -0.756787 -1.81691 -0.323549 -23.2996 -1.59647 -0.925947 -3.28696 -1.59647 -0.92595 79.7501 -53.7237 -114.813 26.7006 -7.33265 23.3062 -7.37593 -12.797 -40.4463 -8.42839 -0.647145 3.08642 -102.433 -41.0872 56.6055 -24.0012 7.34251 3.59262 6.99777 8.8047 -39.6057 16.5216 1.22636 3.53535 -7.36036 -10.3893 -1.66363 9.16668 -10.2267 -0.253952 
34.1539 93.05 -32.8494 94.2068 -28.4174 91.1458 -173.04 12.9591 93.0632 -60.915 14.6904 0.0933222 48.4693 -6.69781 3.45068 44.3142 19.2303 9.93794 179.769 16.2105 93.9842 -39.873 9.58036 -2.76207 75.0208 -4.51944 -2.19572 34.9006 0.287621 9.77964 -0.504137 7.94036 -90.0944 10.9931 -1.04728 -0.0878743 -0.677418 -1.05011 -0.0417048 -23.2156 -0.972442 -0.398596 -3.20293 -0.972458 -0.398594 80.5041 -53.4688 -113.833 25.9625 -6.41792 19.2596 -7.29654 -8.90319 -47.6626 -10.5861 -0.733347 2.69631 -102.078 -41.5881 57.3949 -29.0031 7.7873 6.70014 5.93203 9.42453 -35.3226 13.4885 0.985075 3.33988 -8.82061 -8.57403 -0.785351 8.44716 -8.58167 -0.899537 
40.686 94.7222 -28.5993 93.8511 -29.7644 89.5322 -172.481 18.5858 89.9974 -51.0957 13.1381 -1.19835 53.0788 -2.509 6.06002 47.2847 22.4524 7.91061 179.704 8.32984 92.9958 -33.475 8.33842 -3.88493 74.9856 -4.40226 -2.14362 35.6466 0.401125 8.78815 -0.190733 7.86217 -89.8636 11.15 -0.316104 0.30196 -0.520931 -0.302518 0.315569 -23.0563 -0.392259 0.192991 -3.0436 -0.392254 0.192993 79.5684 -53.4395 -115.18 24.2497 -6.84714 15.5172 -9.60763 -8.51574 -53.4324 -14.873 -0.890942 1.89123 -101.264 -41.9581 58.8293 -33.6041 8.63099 10.1029 5.07811 11.4956 -31.4184 13.6877 1.03199 3.57512 -10.0133 -6.93445 -0.837028 7.37652 -6.93499 -0.643624 
47.1114 95.3753 -24.8464 92.3955 -31.9679 88.0952 -172.322 21.8877 88.2886 -33.4951 6.2476 -1.83684 55.5422 -0.667399 4.78432 49.395 26.3218 11.7046 178.814 1.83995 92.632 -28.4748 5.83975 -3.75272 75.0721 -4.68201 -2.2598 36.476 0.512486 8.44365 0.226703 7.73082 -89.7729 11.4107 0.557215 0.39652 -0.260214 0.57412 0.371604 -22.7954 0.412278 0.545651 -2.78277 0.412278 0.545646 80.0067 -51.3115 -115.364 23.6764 -7.26264 11.6532 -12.9039 -7.99427 -59.4227 -15.5026 -1.00632 2.60933 -100.885 -42.8149 59.7961 -37.1639 9.18563 13.8061 4.24898 13.1394 -28.855 13.8098 1.04866 3.63694 -10.0928 -5.50815 0.378808 6.64496 -5.58036 -0.68958 
53.6766 95.1281 -21.5535 91.0736 -34.836 87.95 -173.549 22.1531 89.1292 -11.1738 3.13501 -1.45136 57.9425 2.13752 5.63976 49.1326 26.8862 14.2514 177.508 -2.49397 89.404 -24.6995 2.58103 -3.24931 75.1125 -5.2939 -2.54009 39.0266 0.878691 8.86062 0.721858 7.70424 -89.7851 11.4644 1.53664 0.271905 -0.205643 1.54711 0.203988 -22.7467 1.38388 0.721247 -2.73409 1.38387 0.721236 81.7565 -48.7855 -113.743 22.4244 -8.17637 6.14354 -14.0247 -7.24855 -63.6589 -14.633 -0.896846 2.09475 -100.507 -43.7664 60.7899 -39.3274 8.75499 17.3992 4.43026 14.479 -28.4489 15.1855 1.32496 4.76676 -8.68312 -4.3512 1.30181 5.24687 -4.53715 -1.54147 
60.6811 94.2042 -18.3003 91.306 -38.1282 89.2139 -174.852 25.3662 90.7216 -5.74756 5.89871 -0.0669938 62.0592 4.42657 8.08279 52.3546 30.7581 13.1848 176.472 -6.91703 89.077 -25.4501 -2.84695 -3.94051 71.8882 -4.614 -2.33404 46.6537 1.90687 8.52113 1.21016 7.75607 -89.834 11.3631 2.48545 0.0812309 -0.305465 2.48662 -0.0283117 -22.8581 2.34604 0.824864 -2.84548 2.34607 0.824872 82.2378 -46.6977 -113.813 20.7362 -9.15531 2.98573 -16.2278 -6.58743 -67.9524 -14.5291 -1.18344 4.6204 -99.2406 -44.5504 63.0519 -40.6152 7.64307 20.6813 4.03878 12.4799 -28.4185 14.3304 1.17628 4.24345 -8.56229 -3.39993 1.41976 4.88657 -3.62364 -1.96696 
